#!OML:ASF H:\ManfredObstacles\Project 1\Capture day 1\Session 1\Male.ASF
:FULLY-SPECIFIED
:DEGREES
538
root -12.8917 16.8844 -15.042 -1.90542 -79.0065 -341.933
lowerback -12.0261 -0.927784 -1.16424
upperback 0.382438 -1.15197 0.912235
thorax 7.20644 -0.630018 1.41299
lowerneck -3.88475 7.26799 -5.07639
upperneck -5.38128 9.99295 5.99399
head -1.65462 4.9946 2.72654
rclavicle -2.127e-014 -2.3059e-014
rhumerus -33.1531 -24.4243 -74.7853
rradius 21.8139
rwrist 38.1162
rhand -5.41627 -9.83379
rfingers 7.12502
rthumb 20.3934 -38.7829
lclavicle -2.127e-014 -2.3059e-014
lhumerus -24.2519 -0.375258 94.5714
lradius 22.5086
lwrist -29.9656
lhand -9.18875 6.66344
lfingers 7.12502
lthumb 16.7647 35.9596
rfemur -29.877 -13.7829 20.5831
rtibia 26.9222
rfoot -20.9265 -7.2011
rtoes 32.9876
lfemur -13.0733 -1.78959 -11.3772
ltibia 18.3241
lfoot -4.28421 17.5926
ltoes -10.78
539
root -12.8679 16.871 -14.9853 -0.38385 -78.6504 -343.859
lowerback -11.9065 -0.865773 -1.13783
upperback 0.487658 -1.07618 0.957467
thorax 7.2488 -0.59328 1.46055
lowerneck -3.88915 7.31401 -4.87206
upperneck -5.33828 10.0388 5.73552
head -1.61413 5.01746 2.60476
rclavicle -1.27222e-014 -1.59028e-015
rhumerus -33.0277 -23.9529 -74.9576
rradius 21.8042
rwrist 37.7203
rhand -5.36427 -9.94639
rfingers 7.12502
rthumb 20.4434 -38.8902
lclavicle -1.27222e-014 -1.59028e-015
lhumerus -24.5052 -0.853479 94.7967
lradius 22.9295
lwrist -29.25
lhand -9.32126 6.92008
lfingers 7.12502
lthumb 16.6372 36.227
rfemur -29.3512 -13.4177 20.3956
rtibia 26.9388
rfoot -21.4095 -7.69632
rtoes 33.6157
lfemur -13.0017 -0.909796 -11.9383
ltibia 18.7414
lfoot -5.67585 18.4566
ltoes -9.32255
540
root -12.842 16.8617 -14.9276 1.06442 -78.2643 -345.758
lowerback -11.7495 -0.832611 -1.19362
upperback 0.607268 -1.03119 1.05191
thorax 7.28885 -0.575864 1.6013
lowerneck -4.05164 7.22958 -5.03704
upperneck -5.18647 9.93209 5.70746
head -1.53802 4.97249 2.6358
rclavicle -1.53064e-014 0
rhumerus -32.7303 -22.8387 -75.3815
rradius 21.718
rwrist 36.7564
rhand -5.33248 -10.131
rfingers 7.12502
rthumb 20.4739 -39.0715
lclavicle -1.53064e-014 0
lhumerus -24.6644 -1.39371 95.058
lradius 23.2247
lwrist -28.3608
lhand -9.49761 7.13779
lfingers 7.12502
lthumb 16.4674 36.4589
rfemur -28.7972 -12.9893 20.2029
rtibia 26.986
rfoot -21.8419 -8.23175
rtoes 34.3137
lfemur -12.8195 -0.504087 -12.3537
ltibia 19.0472
lfoot -7.62066 19.311
ltoes -7.40346
541
root -12.814 16.8604 -14.8685 2.41416 -77.801 -347.551
lowerback -11.5535 -0.862792 -1.32035
upperback 0.684246 -1.06481 1.18877
thorax 7.26651 -0.600148 1.81339
lowerneck -4.09568 7.17016 -4.92329
upperneck -5.01199 9.8372 5.41577
head -1.44348 4.92902 2.52593
rclavicle 2.15681e-014 -1.82882e-014
rhumerus -32.4936 -21.8945 -75.6329
rradius 21.5924
rwrist 36.2719
rhand -5.49268 -10.3665
rfingers 7.12502
rthumb 20.32 -39.3235
lclavicle 2.15681e-014 -1.82882e-014
lhumerus -24.7652 -1.2096 95.1235
lradius 23.3831
lwrist -28.3982
lhand -9.37563 7.24828
lfingers 7.12502
lthumb 16.5848 36.5596
rfemur -28.3027 -13.0831 20.1497
rtibia 27.006
rfoot -21.8595 -8.52975
rtoes 34.3124
lfemur -12.586 -0.590526 -12.7146
ltibia 19.1713
lfoot -9.74089 20.345
ltoes -6.49969
542
root -12.7844 16.8486 -14.805 3.64654 -77.3852 -349.258
lowerback -11.3264 -0.823864 -1.27984
upperback 0.743945 -1.01762 1.16322
thorax 7.19776 -0.574511 1.7736
lowerneck -4.11428 7.14707 -4.66684
upperneck -4.86251 9.79333 5.36822
head -1.37189 4.90466 2.46957
rclavicle -1.5207e-014 -1.90833e-014
rhumerus -32.5258 -22.1766 -75.5762
rradius 21.4444
rwrist 36.8926
rhand -5.39253 -10.29
rfingers 7.12502
rthumb 20.4162 -39.2367
lclavicle -1.5207e-014 -1.90833e-014
lhumerus -25.0388 -0.870247 94.8926
lradius 23.6138
lwrist -28.6623
lhand -9.30383 7.14085
lfingers 7.12502
lthumb 16.654 36.4464
rfemur -27.7906 -13.1485 20.0874
rtibia 27.0426
rfoot -21.9599 -8.9068
rtoes 33.9165
lfemur -12.3656 0.655742 -13.1525
ltibia 19.1953
lfoot -10.1427 20.5791
ltoes -4.70623
543
root -12.7529 16.8362 -14.7396 5.01682 -76.9609 -351.036
lowerback -11.1593 -0.742289 -1.18726
upperback 0.767764 -0.917338 1.09747
thorax 7.12104 -0.519935 1.67044
lowerneck -4.07012 7.12016 -4.35715
upperneck -4.77169 9.74005 5.23718
head -1.32189 4.87442 2.37328
rclavicle 4.74101e-014 -1.31198e-014
rhumerus -32.7231 -23.044 -75.3193
rradius 21.2996
rwrist 37.92
rhand -5.11022 -9.90172
rfingers 7.12502
rthumb 20.6875 -38.8191
lclavicle 4.74101e-014 -1.31198e-014
lhumerus -25.6162 -1.08806 94.6792
lradius 24.0233
lwrist -28.3596
lhand -9.35812 6.88835
lfingers 7.12502
lthumb 16.6017 36.1983
rfemur -27.3198 -12.7769 19.9824
rtibia 27.096
rfoot -22.3213 -9.65995
rtoes 33.8755
lfemur -12.219 1.26392 -13.4727
ltibia 19.1429
lfoot -11.272 21.2282
ltoes -4.73598
544
root -12.7196 16.8204 -14.671 6.12403 -76.4684 -352.632
lowerback -10.9207 -0.748 -1.14847
upperback 0.824431 -0.929945 1.08162
thorax 7.04521 -0.523784 1.63133
lowerneck -4.08814 7.09867 -4.17065
upperneck -4.64711 9.69742 5.03895
head -1.25435 4.85367 2.27989
rclavicle -4.96962e-016 1.11319e-014
rhumerus -32.8351 -23.6581 -75.1487
rradius 21.1695
rwrist 38.7744
rhand -5.26485 -9.84579
rfingers 7.12502
rthumb 20.5389 -38.7793
lclavicle -4.96962e-016 1.11319e-014
lhumerus -25.7415 -0.29815 94.2645
lradius 24.1709
lwrist -29.1376
lhand -8.98282 6.70738
lfingers 7.12502
lthumb 16.963 35.9867
rfemur -26.7982 -12.638 19.8933
rtibia 27.204
rfoot -22.5492 -10.2991
rtoes 33.7192
lfemur -11.9711 1.71218 -13.7259
ltibia 19.06
lfoot -13.7335 21.4681
ltoes 3.06688
545
root -12.6855 16.8041 -14.5982 7.28646 -75.9858 -354.195
lowerback -10.7735 -0.793119 -1.11932
upperback 0.856878 -0.998136 1.12979
thorax 6.99908 -0.556837 1.65535
lowerneck -4.15034 7.05052 -4.26843
upperneck -4.50921 9.63658 5.06158
head -1.20302 4.8275 2.31005
rclavicle 1.39149e-015 -1.66979e-014
rhumerus -32.8494 -23.7859 -75.1005
rradius 21.0826
rwrist 39.0293
rhand -5.54449 -10.0452
rfingers 7.12502
rthumb 20.2702 -39.0075
lclavicle 1.39149e-015 -1.66979e-014
lhumerus -25.9719 0.977431 93.8583
lradius 24.6041
lwrist -30.2591
lhand -8.69702 6.90463
lfingers 7.12502
lthumb 17.2381 36.1601
rfemur -26.3767 -12.5891 19.8384
rtibia 27.2716
rfoot -22.7359 -10.7956
rtoes 33.4836
lfemur -11.7215 2.47262 -13.9389
ltibia 18.8517
lfoot -15.7748 21.1774
ltoes 9.89095
546
root -12.65 16.7878 -14.5217 7.72113 -75.5356 -355.268
lowerback -10.3318 -0.787207 -1.24265
upperback 0.926885 -0.980384 1.18179
thorax 6.82482 -0.552778 1.78628
lowerneck -4.10712 7.05393 -4.12821
upperneck -4.38714 9.62638 4.7947
head -1.14762 4.82349 2.19974
rclavicle -8.05078e-015 0
rhumerus -33.0031 -24.3226 -74.6978
rradius 20.9391
rwrist 39.7801
rhand -5.41275 -9.77384
rfingers 7.12502
rthumb 20.3968 -38.7226
lclavicle -8.05078e-015 0
lhumerus -26.0518 0.96337 93.8817
lradius 24.6173
lwrist -30.1462
lhand -8.67918 7.27196
lfingers 7.12502
lthumb 17.2552 36.5259
rfemur -25.6722 -12.4814 19.552
rtibia 27.3657
rfoot -23.0381 -11.0054
rtoes 34.1065
lfemur -11.1262 2.59425 -14.2014
ltibia 18.649
lfoot -17.4931 21.1667
ltoes 13.4144
